<svg id="Layer_1" xmlns="http://www.w3.org/2000/svg" viewBox="0 0 340.7 114.5"><style>.st0{fill:#f0f0f0}.st1{fill:#51ffe1}.st2,.st3{fill:none;stroke:#000;stroke-width:3;stroke-miterlimit:10}.st3{stroke-width:2}.st4{fill:#242352}.st5{stroke-width:3}.st5,.st6,.st7{fill:none;stroke:#242352;stroke-miterlimit:10}.st6{stroke-width:2}.st7{stroke-width:1.0881}.st8{fill:#c9e1f1}.st9{fill:#ffef1c}.st10{fill:#9763f8}.st11{fill:none;stroke-width:3;stroke-miterlimit:10}.st11,.st12{stroke:#51ffe1}.st12,.st13,.st14{fill:none;stroke-miterlimit:10}.st12{stroke-width:2}.st13,.st14{stroke:#242352;stroke-width:3.4502}.st14{stroke-width:2.3001}.st15{fill:url(#SVGID_3_)}.st16{fill:none;stroke:#9763f8;stroke-width:2;stroke-miterlimit:10}.st17{fill:url(#SVGID_4_)}.st18{fill:none;stroke:#9763f8;stroke-width:3;stroke-miterlimit:10}.st19{fill:#ededed}.st20{fill:none;stroke:#ededed;stroke-width:3;stroke-miterlimit:10}</style><path class="st1" d="M0 16.8h63.8v63.8H0zm178.9 61.1h150.9v33.9H178.9z"/><path class="st4" d="M107.5 60.8h-17c-.7 0-1.2-.2-1.6-.6-.4-.4-.6-1-.6-1.6V12.1c0-1.6.7-2.4 2.2-2.4h17c3.4 0 6 1.1 7.9 3.3 1.9 2.2 2.8 5.1 2.8 8.6V49c0 3.8-.9 6.7-2.8 8.8-1.8 2-4.4 3-7.9 3zm5.5-39.2c0-4.2-1.8-6.3-5.4-6.3H93.9v40h13.7c3.6 0 5.4-2.2 5.4-6.5V21.6zm39.4 39.2h-20.2c-.7 0-1.2-.2-1.6-.6-.4-.4-.6-1-.6-1.6V12.1c0-.7.2-1.2.5-1.7s.9-.7 1.6-.7h20.2c.7 0 1.2.2 1.6.6.4.4.6 1 .6 1.6v1c0 .8-.3 1.3-.8 1.7s-1 .6-1.4.6h-17.2V32h15.6c.4 0 .9.2 1.4.6.5.4.8 1 .8 1.8v.9c0 .7-.2 1.2-.6 1.6-.4.4-.9.6-1.6.6h-15.6v17.7h17.2c.7 0 1.2.2 1.6.6.4.4.6 1 .6 1.6v1c0 .8-.3 1.3-.8 1.7s-.9.7-1.3.7zm29.2-1.7c-.3.4-.5.8-.8 1.2-.3.4-.7.6-1.3.6h-1.8c-.9 0-1.6-.5-2-1.4-.2-.3-.3-.5-.3-.6L162 12.5c-.2-.4-.1-1 .1-1.7s.8-1.1 1.8-1.1h1.1c.8 0 1.5.5 1.9 1.4.2.3.3.5.3.6L178.6 50l11.3-38.3c.2-.3.3-.5.3-.7 0-.2.1-.4.3-.6.2-.2.4-.3.6-.5.2-.2.5-.3.9-.3h1.3c.9 0 1.5.4 1.7 1.1.2.7.2 1.3.1 1.7l-13.5 46.7zm63.8 1.7h-17c-.7 0-1.2-.2-1.6-.6-.4-.4-.6-1-.6-1.6V12.1c0-1.6.7-2.4 2.2-2.4h17c3.4 0 6 1.1 7.9 3.3 1.9 2.2 2.8 5.1 2.8 8.6V49c0 3.8-.9 6.7-2.8 8.8-1.8 2-4.4 3-7.9 3zm5.4-39.2c0-4.2-1.8-6.3-5.4-6.3h-13.7v40h13.7c3.6 0 5.4-2.2 5.4-6.5V21.6zm47.4 39.2H297c-.7 0-1.2-.2-1.5-.7-.3-.5-.6-.9-.8-1.5L291 47.3h-17.5L269.7 59c-.2.5-.4.9-.8 1.3s-.9.6-1.5.6h-.9c-.8 0-1.4-.3-1.8-1-.3-.7-.4-1.3-.3-1.9l14.7-46.2c.2-.2.3-.4.4-.6.1-.3.2-.5.4-.6.3-.5.8-.8 1.5-.8h1.6c1.2 0 2 .6 2.4 1.9L300.1 58c.2.6.1 1.2-.3 1.9-.2.6-.8.9-1.6.9zm-16-41.7c-1.1 4-2.3 8.1-3.5 12.3-1.3 4.1-2.3 7.5-3 10.1h13.4l-6.9-22.4zm41.9 22.1v17.3c0 .7-.2 1.2-.6 1.6-.4.4-1 .6-1.6.6h-.9c-.8 0-1.3-.3-1.6-.8-.3-.5-.5-1-.5-1.5V41.2L305.2 13c-.3-.5-.3-1.2-.2-2 .1-.8.8-1.3 2-1.3h1.3c.7 0 1.2.2 1.5.6.3.4.6.7.9 1.1l10.8 23 10.9-23c.2-.4.4-.8.8-1 .3-.4.8-.6 1.6-.6h1c1.2 0 1.8.4 2 1.1.1.8.1 1.4-.1 2l-13.6 28.3zM210.2 97.7h-.5c-.2 0-.4-.1-.5-.2-.1-.1-.2-.3-.3-.5l-1.6-4.9H200l-1.7 5c-.2.4-.4.6-.7.6h-.4c-.2 0-.4-.1-.5-.3-.1-.2-.1-.4-.1-.6l6-19.3.2-.3.1-.1.1-.1c.1-.2.3-.3.5-.3h.7c.3 0 .6.2.8.6l6 19.4c.1.2 0 .4-.1.6-.3.3-.5.4-.7.4zm-6.6-18.1c-.6 2.1-1.1 4.1-1.6 5.9-.5 1.8-1 3.4-1.4 4.6h6.1l-3.1-10.5zm21.6 18.1h-.6c-.3 0-.6-.1-.7-.4l-3.3-8H216V97c0 .5-.3.7-.8.7h-.2c-.2 0-.3 0-.5-.1s-.2-.3-.2-.6V77.5c0-.5.2-.7.7-.7h6.2c1.3 0 2.4.4 3.1 1.2.7.8 1.1 2 1.1 3.5v3c0 1.1-.2 2.1-.7 2.8-.5.7-1.2 1.4-2.3 1.8l3.3 7.5c0 .1.1.3.1.6 0 .4-.2.5-.6.5zm-1.5-16.2c0-2-.8-2.9-2.5-2.9h-5.1v8.8h5.1c1.7 0 2.5-1 2.5-2.9v-3zM237 97.7h-3.2c-1.3 0-2.3-.4-3-1.2-.7-.8-1.1-2-1.1-3.5V81.5c0-1.5.4-2.6 1.1-3.5.7-.8 1.7-1.3 3-1.3h3.2c1.3 0 2.3.4 3.1 1.3.7.8 1.1 2 1.1 3.5v1.4c0 .6-.2.9-.7.9h-.4c-.2 0-.4-.1-.5-.3-.1-.2-.1-.4-.1-.6v-1.4c0-1.9-.8-2.9-2.4-2.9h-3.2c-1.6 0-2.4 1-2.4 2.9v11.3c0 2 .8 2.9 2.4 2.9h3.2c1.6 0 2.4-1 2.4-2.9v-4.4H236c-.4 0-.6-.2-.6-.7v-.4c0-.2.1-.3.2-.5s.2-.3.4-.3h4.2c.7 0 1 .4 1 1.1v5.2c0 1.6-.4 2.7-1.1 3.5-.7 1-1.8 1.4-3.1 1.4zm18 0h-8.3c-.4 0-.6-.2-.6-.7V77.6c0-.5.2-.8.6-.8h8.3c.4 0 .7.2.7.7v.4c0 .2-.1.4-.2.5-.2.1-.3.2-.4.2h-7.2v7.5h6.6c.1 0 .3.1.4.2.2.1.2.3.2.6v.4c0 .5-.2.7-.7.7h-6.6v7.9h7.2c.4 0 .7.2.7.7v.4c0 .2-.1.4-.2.5-.2.1-.4.2-.5.2zm16.7 0h-.3c-.3 0-.5-.2-.7-.5L262.1 81v16c0 .2-.1.3-.2.5s-.3.2-.5.2h-.4c-.5 0-.7-.2-.7-.7V77.6c0-.5.2-.8.7-.8h.4c.3 0 .5.1.5.3l8.8 16.3V77.6c0-.2 0-.3.1-.5s.3-.3.5-.3h.4c.2 0 .4.1.5.3.1.2.2.3.2.5V97c0 .2-.1.3-.2.5-.1.1-.3.2-.5.2zm14.8-19.1h-4.1V97c0 .2-.1.3-.2.5s-.3.2-.5.2h-.3c-.2 0-.4-.1-.5-.2-.1-.2-.2-.3-.2-.5V78.6h-4.1c-.2 0-.3-.1-.5-.2-.1-.1-.2-.3-.2-.6v-.4c0-.5.2-.7.7-.7h9.9c.4 0 .7.2.7.7v.4c0 .6-.2.8-.7.8zm4.7 19.1h-.4c-.2 0-.3-.1-.4-.3-.1-.2-.2-.3-.2-.5V77.6c0-.5.2-.8.6-.8h.4c.4 0 .7.3.7.8V97c0 .4-.2.7-.7.7zm16.7 0h-.3c-.3 0-.5-.2-.7-.5L298.3 81v16c0 .2-.1.3-.2.5s-.3.2-.5.2h-.4c-.5 0-.7-.2-.7-.7V77.6c0-.5.2-.8.7-.8h.4c.3 0 .5.1.5.3l8.8 16.3V77.6c0-.2 0-.3.1-.5s.2-.3.5-.3h.4c.2 0 .4.1.5.3.1.2.2.3.2.5V97c0 .2-.1.3-.2.5-.1.1-.3.2-.5.2zm17.8 0h-.5c-.2 0-.4-.1-.5-.2-.1-.1-.2-.3-.3-.5l-1.6-4.9h-7.5l-1.7 5c-.2.4-.4.6-.7.6h-.4c-.2 0-.4-.1-.5-.3-.1-.2-.1-.4-.1-.6l6-19.3.2-.3.1-.1.1-.1c.1-.2.3-.3.5-.3h.7c.3 0 .6.2.8.6l6 19.4c.1.2 0 .4-.1.6s-.3.4-.5.4zm-6.5-18.1c-.6 2.1-1.1 4.1-1.6 5.9-.5 1.8-1 3.4-1.4 4.6h6.1l-3.1-10.5zM44.9 34.4c-.3.3-.6.6-.9.6L20.7 46.2c-.8.2-1.2.3-1.4.1-.5-.2-.7-.6-.7-1.3v-.8c0-.4.1-.7.4-1 .1-.1.2-.2.3-.4l.3-.3 20.3-9.8-20.4-10.5c-.6-.3-1-.9-1-1.7v-.7c0-.6.2-1.1.6-1.3.5-.3.9-.3 1.4-.1L44 30.7c.2.1.5.3.9.6.2.4.4.7.4 1.1v1c0 .4-.1.8-.4 1zm22.8 21.2c-.1.2-.5.4-1.1.4H48c-.6 0-.9-.1-1.1-.4-.3-.2-.4-.3-.4-.4V53l.4-.3c.1-.2.4-.3 1.1-.3h18.7c.5 0 .9.1 1.1.3l.4.3v2.2c-.1.1-.2.2-.5.4z"/><path class="st13" d="M10.7 4.5h65.2v65.2H10.7z"/><path class="st14" d="M185.8 70H337v34.5H185.8z"/></svg>