<svg xmlns="http://www.w3.org/2000/svg" viewBox="0 0 69.5 69.5"><defs><style>.cls-1{fill:#51ffe1;}.cls-2{fill:#242352;}</style></defs><title>Asset 12</title><g id="Layer_2" data-name="Layer 2"><g id="Layer_1-2" data-name="Layer 1"><rect class="cls-1" width="69.5" height="69.5"/><path class="cls-2" d="M50.1,28.18c.5,11.14-7.81,23.57-22.52,23.57a22.42,22.42,0,0,1-12.14-3.56A15.92,15.92,0,0,0,27.17,44.9a7.93,7.93,0,0,1-7.4-5.5,7.93,7.93,0,0,0,3.58-.14A7.93,7.93,0,0,1,17,31.4a7.89,7.89,0,0,0,3.59,1,7.93,7.93,0,0,1-2.45-10.58,22.48,22.48,0,0,0,16.33,8.28A7.93,7.93,0,0,1,48,22.87a15.88,15.88,0,0,0,5-1.92,7.94,7.94,0,0,1-3.48,4.38,15.83,15.83,0,0,0,4.55-1.25A16.06,16.06,0,0,1,50.1,28.18Z"/></g></g></svg>