<svg xmlns="http://www.w3.org/2000/svg" viewBox="0 0 69.5 69.5"><defs><style>.cls-1{fill:#51ffe1;}.cls-2{fill:#242352;}</style></defs><title>Asset 11</title><g id="Layer_2" data-name="Layer 2"><g id="Layer_1-2" data-name="Layer 1"><rect class="cls-1" width="69.5" height="69.5"/><g id="Lozenge"><path class="cls-2" d="M53.2,27.22s-.37-2.59-1.5-3.74a5.38,5.38,0,0,0-3.77-1.59c-5.27-.38-13.17-.38-13.17-.38h0s-7.9,0-13.17.38a5.38,5.38,0,0,0-3.77,1.59c-1.13,1.14-1.5,3.74-1.5,3.74a56.94,56.94,0,0,0-.38,6.09v2.86a56.94,56.94,0,0,0,.38,6.09s.37,2.59,1.5,3.74c1.43,1.5,3.31,1.45,4.15,1.61,3,.29,12.8.38,12.8.38s7.91,0,13.18-.39A5.39,5.39,0,0,0,51.7,46c1.13-1.14,1.5-3.74,1.5-3.74a57,57,0,0,0,.38-6.09V33.31A57,57,0,0,0,53.2,27.22ZM30.86,39.63V29.05L41,34.36Z"/></g></g></g></svg>